<?xml version="1.0"?>
<svg width="1257" height="597" xmlns="http://www.w3.org/2000/svg" xmlns:svg="http://www.w3.org/2000/svg">
 <defs>
  <clipPath id="clip0_360_1108">
   <rect fill="white" height="597" id="svg_1" style="--darkreader-inline-fill: var(--darkreader-text-ffffff, #ffffff);" width="1257"/>
  </clipPath>
 </defs>
 <g class="layer">
  <title>Layer 1</title>
  <g clip-path="url(#clip0_360_1108)" id="svg_2">
   <path d="m526.31,341.25l206.38,0c3.79,0 7.41,1.49 10.08,4.15c2.68,2.66 4.18,6.26 4.18,10.02l0,56.14c0,3.75 -1.5,7.36 -4.18,10.02c-2.67,2.66 -6.29,4.15 -10.08,4.15l-206.38,0c-3.79,0 -7.41,-1.49 -10.08,-4.15c-2.68,-2.66 -4.18,-6.27 -4.18,-10.02l0,-56.14c0,-3.76 1.5,-7.36 4.18,-10.02c2.67,-2.66 6.29,-4.15 10.08,-4.15z" fill="#F5E3C5" id="svg_6" style="--darkreader-inline-fill: var(--darkreader-background-f5e3c5, #755114);"/>
   <path d="m1,411.32l0,-111.61c0,-3.75 1.5,-7.36 4.18,-10.02c2.67,-2.66 6.3,-4.15 10.08,-4.15l83.83,0c3.78,0 7.4,1.49 10.08,4.15c2.67,2.66 4.17,6.27 4.17,10.02l0,81.94l20.63,0l0,-116.61l-79.6,0c-34.31,0 -53.37,-18.57 -53.37,-53.06l0,-80.09c0,-3.75 1.5,-7.36 4.18,-10.02c2.67,-2.66 6.3,-4.15 10.08,-4.15l206.38,0c3.79,0 7.41,1.49 10.08,4.15c2.68,2.66 4.18,6.27 4.18,10.02l0,46.54c0,3.76 -1.5,7.36 -4.18,10.02c-2.67,2.66 -6.29,4.15 -10.08,4.15l-73.42,0c-3.78,0 -7.41,-1.49 -10.08,-4.15c-2.67,-2.66 -4.17,-6.26 -4.17,-10.02l0,-16.86l-20.63,0l0,51.54l69.15,0c34.35,0 53.41,17.43 53.41,51.98l0,146.47c0,3.75 -1.5,7.36 -4.18,10.02c-2.67,2.66 -6.29,4.15 -10.08,4.15l-206.38,0c-1.9,0 -3.77,-0.37 -5.51,-1.1c-1.75,-0.73 -3.33,-1.79 -4.66,-3.12c-1.33,-1.34 -2.37,-2.94 -3.07,-4.69c-0.71,-1.74 -1.05,-3.61 -1.02,-5.49z" fill="#F5E3C5" id="svg_7" style="--darkreader-inline-fill: var(--darkreader-background-f5e3c5, #755114);"/>
   <path d="m767.58,411.32l0,-111.61c0,-3.75 1.5,-7.36 4.17,-10.02c2.67,-2.66 6.3,-4.15 10.08,-4.15l83.83,0c3.78,0 7.41,1.49 10.08,4.15c2.67,2.66 4.18,6.27 4.18,10.02l0,81.94l20.62,0l0,-116.61l-79.6,0c-34.31,0 -53.36,-18.57 -53.36,-53.06l0,-80.09c0,-3.75 1.5,-7.36 4.17,-10.02c2.67,-2.66 6.3,-4.15 10.08,-4.15l206.39,0c3.78,0 7.41,1.49 10.08,4.15c2.67,2.66 4.18,6.27 4.18,10.02l0,46.54c0,3.76 -1.51,7.36 -4.18,10.02c-2.67,2.66 -6.3,4.15 -10.08,4.15l-73.42,0c-3.78,0 -7.41,-1.49 -10.08,-4.15c-2.68,-2.66 -4.18,-6.26 -4.18,-10.02l0,-16.86l-20.62,0l0,51.54l69.14,0c34.31,0 53.42,17.43 53.42,51.98l0,146.47c0,3.75 -1.51,7.36 -4.18,10.02c-2.67,2.66 -6.3,4.15 -10.08,4.15l-206.39,0c-1.89,0 -3.76,-0.37 -5.51,-1.1c-1.74,-0.73 -3.33,-1.79 -4.66,-3.12c-1.32,-1.34 -2.37,-2.94 -3.07,-4.69c-0.7,-1.74 -1.05,-3.61 -1.01,-5.49z" fill="#F5E3C5" id="svg_8" style="--darkreader-inline-fill: var(--darkreader-background-f5e3c5, #755114);"/>
   <path d="m270.78,117.72l78.6,0c3.78,0 7.41,1.49 10.08,4.15c2.68,2.66 4.18,6.27 4.18,10.02l0,148.93l20.62,0l0,-148.93c0,-3.75 1.51,-7.36 4.18,-10.02c2.67,-2.66 6.3,-4.15 10.08,-4.15l78.65,0c3.78,0 7.41,1.49 10.08,4.15c2.67,2.66 4.18,6.27 4.18,10.02l0,279.43c0,3.76 -1.51,7.36 -4.18,10.02c-2.67,2.66 -6.3,4.15 -10.08,4.15l-37.16,0c-3.78,0 -7.41,-1.49 -10.08,-4.15c-2.68,-2.66 -4.18,-6.26 -4.18,-10.02l0,-130.5l-20.58,0l0,130.64c0,3.76 -1.5,7.36 -4.17,10.02c-2.68,2.67 -6.3,4.16 -10.08,4.16l-33.27,0c-3.78,0 -7.41,-1.49 -10.08,-4.16c-2.67,-2.66 -4.18,-6.26 -4.18,-10.02l0,-130.64l-20.62,0l0,130.64c0,3.76 -1.5,7.36 -4.17,10.02c-2.68,2.67 -6.3,4.16 -10.09,4.16l-37.49,0c-3.78,0 -7.41,-1.49 -10.08,-4.16c-2.68,-2.66 -4.18,-6.26 -4.18,-10.02l0,-279.57c0,-3.71 1.47,-7.28 4.09,-9.94c2.63,-2.65 6.19,-4.17 9.93,-4.23z" fill="#F5E3C5" id="svg_9" style="--darkreader-inline-fill: var(--darkreader-background-f5e3c5, #755114);"/>
   <path d="m732.69,320.74l-78.83,0c-3.79,0 -7.41,-1.49 -10.09,-4.16c-2.67,-2.66 -4.17,-6.26 -4.17,-10.02l0,-26.93l-20.44,0l0,26.93c0,3.76 -1.5,7.36 -4.17,10.02c-2.67,2.67 -6.3,4.16 -10.08,4.16l-78.6,0c-3.79,0 -7.41,-1.49 -10.08,-4.16c-2.68,-2.66 -4.18,-6.26 -4.18,-10.02l0,-174.82c0,-3.76 1.5,-7.36 4.18,-10.02c2.67,-2.66 6.29,-4.15 10.08,-4.15l206.38,0c3.79,0 7.41,1.49 10.08,4.15c2.68,2.66 4.18,6.26 4.18,10.02l0,174.82c0,1.86 -0.37,3.7 -1.08,5.42c-0.72,1.72 -1.77,3.28 -3.1,4.6c-1.32,1.32 -2.89,2.37 -4.62,3.07c-1.73,0.72 -3.58,1.08 -5.46,1.08zm-113.53,-73l20.44,0l0,-95.06l-20.44,0l0,95.06z" fill="#F5E3C5" id="svg_10" style="--darkreader-inline-fill: var(--darkreader-background-f5e3c5, #755114);"/>
   <path d="m1023.1,411.51l0,-279.62c0,-3.75 1.5,-7.36 4.18,-10.02c2.67,-2.66 6.3,-4.15 10.08,-4.15l78.6,0c3.78,0 7.4,1.49 10.08,4.15c2.67,2.66 4.17,6.27 4.17,10.02l0,148.93l20.63,0l0,-148.93c0,-3.75 1.5,-7.36 4.17,-10.02c2.68,-2.66 6.3,-4.15 10.08,-4.15l78.65,0c3.78,0 7.41,1.49 10.08,4.15c2.68,2.66 4.18,6.27 4.18,10.02l0,279.62c0,3.76 -1.5,7.36 -4.18,10.02c-2.67,2.66 -6.3,4.15 -10.08,4.15l-78.65,0c-3.78,0 -7.4,-1.49 -10.08,-4.15c-2.67,-2.66 -4.17,-6.26 -4.17,-10.02l0,-81.13l-20.63,0l0,80.99c0,3.75 -1.5,7.36 -4.17,10.02c-2.68,2.66 -6.3,4.15 -10.08,4.15l-78.65,0c-3.75,-0.01 -7.34,-1.49 -10,-4.12c-2.66,-2.63 -4.17,-6.19 -4.21,-9.91z" fill="#F5E3C5" id="svg_11" style="--darkreader-inline-fill: var(--darkreader-background-f5e3c5, #755114);"/>
  </g>
 </g>
</svg>